<svg width="855" height="284" viewBox="0 0 855 284" fill="none" xmlns="http://www.w3.org/2000/svg">
<path d="M742.57 0H739.99C677.95 0 627.7 51.04 627.7 114V283.93H854.85V114C854.85 51.04 804.62 0 742.57 0ZM753.19 211.86C753.19 235.96 733.67 255.49 709.58 255.49H656.1V113.57H696.29C714.4 113.57 729.06 128.24 729.06 146.34V147.1C729.06 155.4 725.99 162.97 720.92 168.74C739.51 173.72 753.2 190.68 753.2 210.86V211.86H753.19Z" fill="#231F20"/>
<path d="M413.1 60.46C412.27 59.93 411.43 59.66 410.58 59.66C409.14 59.66 407.39 60.47 405.34 62.1C403.29 63.73 401.5 65.61 399.98 67.74C398.46 69.87 397.7 71.55 397.7 72.78C397.7 73.63 398.01 74.33 398.62 74.86C399.23 75.39 400.29 75.82 401.78 76.14L411.54 77.98C414.1 78.51 416.02 79.47 417.3 80.86C418.58 82.25 419.22 83.95 419.22 85.98C419.22 89.07 418.47 92.03 416.98 94.86C415.49 97.69 413.46 100.01 410.9 101.82C407.22 104.59 402.67 106.74 397.26 108.26C391.85 109.78 386.47 110.54 381.14 110.54C373.46 110.54 367.69 108.91 363.82 105.66C359.95 102.41 358.02 97.79 358.02 91.82C358.02 85.85 359.46 78.35 362.34 68.54L369.86 70.46C367.94 77.87 366.98 83.55 366.98 87.5C366.98 91.13 368.34 93.95 371.06 95.98C373.78 98.01 377.73 99.02 382.9 99.02C387.65 99.02 392.11 98.5 396.3 97.46C400.49 96.42 403.87 95.19 406.46 93.78C409.05 92.37 410.34 91.23 410.34 90.38C410.34 89.47 409.03 88.78 406.42 88.3L398.26 86.86C395.11 86.27 392.78 85.21 391.26 83.66C389.74 82.11 388.98 80.01 388.98 77.34C388.98 73.5 390.23 69.37 392.74 64.94C395.25 60.51 398.33 56.78 401.98 53.74C405.63 50.7 409.06 49.18 412.26 49.18C416.31 49.18 419.65 51.71 422.26 56.78L415.78 62.94C414.82 61.82 413.93 60.99 413.1 60.46Z" fill="#231F20"/>
<path d="M438.42 90.66C435.65 87.75 434.18 83.34 434.02 77.42C433.75 71.13 433.49 62.27 433.22 50.86L432.66 32.38L442.5 31.66C442.45 36.46 442.42 49.98 442.42 72.22C442.42 76.01 443.21 78.83 444.78 80.7C446.35 82.57 448.82 83.5 452.18 83.5L451.06 95.02C445.41 95.02 441.19 93.57 438.42 90.66Z" fill="#231F20"/>
<path d="M468.5 65.78C470.79 68.21 472.35 70.34 473.18 72.18C474.01 74.02 474.42 76.03 474.42 78.22C474.42 81.21 473.64 83.93 472.1 86.38C470.55 88.83 468.42 90.75 465.7 92.14C462.29 94.06 457.41 95.02 451.06 95.02C450.79 95.02 450.58 94.66 450.42 93.94C450.26 93.22 450.18 92.25 450.18 91.02C450.18 88.62 450.39 86.77 450.82 85.46C451.25 84.15 451.7 83.5 452.18 83.5C456.29 83.5 459.64 83.17 462.26 82.5C464.87 81.83 466.18 80.91 466.18 79.74C466.18 78.41 465.8 77.07 465.06 75.74C464.31 74.41 462.71 72.55 460.26 70.18C457.8 67.81 454.1 64.59 449.14 60.54L451.14 49.74L492.1 31.42L494.18 40.3L458.26 56.54C462.79 60.27 466.21 63.35 468.5 65.78Z" fill="#231F20"/>
<path d="M497.22 92.94C495.83 100.25 491.38 105.9 483.86 109.9C477.73 113.15 469.7 115.69 459.78 117.5C459.25 116.01 458.21 112.7 456.66 107.58C469.14 105.29 477.69 102.69 482.3 99.78C486.91 96.87 489.22 93.82 489.22 90.62C489.22 88.86 488.86 85.98 488.14 81.98C487.42 77.98 486.58 74.03 485.62 70.14L494.82 67.26C495.41 70.99 496.1 74.35 496.9 77.34C497.49 79.63 498.46 81.23 499.82 82.14C501.18 83.05 503.33 83.5 506.26 83.5L505.14 95.02C501.51 95.02 498.87 94.33 497.22 92.94Z" fill="#231F20"/>
<path d="M566.5 71.78C566.82 75.17 566.98 78.01 566.98 80.3C566.98 84.89 565.94 88.49 563.86 91.1C561.78 93.71 559.14 95.02 555.94 95.02C553.06 95.02 550.49 94.49 548.22 93.42C545.95 92.35 544.31 90.91 543.3 89.1C542.18 91.02 540.65 92.49 538.7 93.5C536.75 94.51 534.61 95.02 532.26 95.02C529.7 95.02 527.45 94.5 525.5 93.46C523.55 92.42 522.23 90.94 521.54 89.02C520.26 91.05 518.3 92.55 515.66 93.54C513.02 94.53 509.51 95.02 505.14 95.02C504.87 95.02 504.66 94.66 504.5 93.94C504.34 93.22 504.26 92.25 504.26 91.02C504.26 88.62 504.47 86.77 504.9 85.46C505.33 84.15 505.78 83.5 506.26 83.5C510.63 83.5 513.82 82.87 515.82 81.62C517.82 80.37 518.82 78.33 518.82 75.5V70.78L526.74 70.06V75.98C526.74 78.33 527.27 80.17 528.34 81.5C529.41 82.83 531.01 83.5 533.14 83.5C535.27 83.5 536.79 82.83 538.02 81.5C539.25 80.17 539.86 78.49 539.86 76.46V71.58L547.78 70.86V75.82C547.78 78.22 548.54 80.1 550.06 81.46C551.58 82.82 553.67 83.5 556.34 83.5C556.93 83.5 557.41 83.33 557.78 82.98C558.15 82.63 558.34 82.19 558.34 81.66C558.34 80.27 558.11 77.93 557.66 74.62C557.2 71.31 556.69 68.19 556.1 65.26L565.38 62.62C565.81 65.34 566.18 68.39 566.5 71.78ZM541.38 50.22H553.22V58.7H530.34V50.22H541.38ZM536.9 46.54V38.06H546.66V46.54H536.9Z" fill="#231F20"/>
<path d="M258.99 203.67C258.99 215.52 249.38 225.13 237.53 225.13H147.25V137.92H131.02V232.69H237.53C258.34 232.69 275.21 215.82 275.21 195.01V166.06H258.98V203.66L258.99 203.67Z" fill="#010101"/>
<path d="M74.63 137.93H58.42V232.7H74.63V137.93Z" fill="#010101"/>
<path d="M94.64 237.63C94.64 242.09 91.03 245.7 86.57 245.7H72.6V253.27H84.61C99.1 253.27 110.85 241.52 110.85 227.03V166.07H94.65V237.63H94.64Z" fill="#010101"/>
<path d="M22.04 237.63C22.04 242.09 18.43 245.7 13.97 245.7H0V253.27H9.64C25.44 253.27 38.25 240.46 38.25 224.66V166.07H22.04V237.63Z" fill="#010101"/>
<path d="M567.87 242.62H551.67V253.27H567.87V242.62Z" fill="#010101"/>
<path d="M275.22 242.62H259.02V253.27H275.22V242.62Z" fill="#010101"/>
<path d="M110.92 137.93H94.72V148.58H110.92V137.93Z" fill="#010101"/>
<path d="M511.89 245.7H462.3V253.27H511.89V245.7Z" fill="#010101"/>
<path d="M567.86 166.07H551.67V205.25C551.67 216.23 542.77 225.14 531.78 225.14C520.79 225.14 511.89 216.24 511.89 205.25V166.07H496.17H495.69V196.62V206.33C495.69 216.72 487.27 225.14 476.88 225.14C469.25 225.14 462.38 220.53 459.48 213.47L444.24 176.31C439.82 165.53 429.33 158.5 417.68 158.5C403.83 158.5 391.96 168.38 389.45 182L382.6 219.13C382.08 221.96 380.01 224.38 377.2 224.98C373.75 225.72 370.42 223.83 369.21 220.69L352.91 178.45C348.27 166.43 336.71 158.5 323.83 158.5C306.61 158.5 292.66 172.46 292.66 189.67V232.71H340.05V225.14H308.89V179.53C308.89 172.1 314.91 166.08 322.34 166.08C327.92 166.08 332.92 169.52 334.91 174.73L350.45 215.43C353.97 224.65 362.2 231.53 372.02 232.56C379.87 233.39 387.21 230.63 392.49 225.63L412.37 231.35C423.24 234.48 435.16 232.19 443.58 224.64C444.06 224.21 444.52 223.77 444.97 223.32C445.71 222.58 446.4 221.8 447.07 221C454.03 228.33 463.82 232.7 474.32 232.7C486.06 232.7 496.54 227.31 503.43 218.88C510.04 227.29 520.27 232.7 531.79 232.7C551.72 232.7 567.87 216.54 567.87 196.62V166.07H567.86ZM438.97 208.7C438.02 220.41 425.87 227.85 414.68 224.27L397.63 218.82C398.77 216.62 399.62 214.23 400.1 211.68L407.29 173.21C408.06 169.07 411.68 166.06 415.9 166.06C419.45 166.06 422.65 168.21 424 171.49L438.99 208.04C438.98 208.26 438.99 208.47 438.96 208.69L438.97 208.7Z" fill="#010101"/>
</svg>
